<mxfile host="app.diagrams.net" agent="Mozilla/5.0 (Windows NT 10.0; Win64; x64) AppleWebKit/537.36 (KHTML, like Gecko) Chrome/130.0.0.0 Safari/537.36" version="24.8.3">
  <diagram name="Strona-1" id="k9BBSeeiDPRvixk8zSBx">
    <mxGraphModel dx="1232" dy="1103" grid="1" gridSize="10" guides="1" tooltips="1" connect="1" arrows="1" fold="1" page="1" pageScale="1" pageWidth="827" pageHeight="1169" math="0" shadow="0">
      <root>
        <mxCell id="0" />
        <mxCell id="1" parent="0" />
        <mxCell id="iTXo6LtLCCWGJHb1AfA0-1" style="edgeStyle=orthogonalEdgeStyle;rounded=0;orthogonalLoop=1;jettySize=auto;html=1;exitX=0.5;exitY=1;exitDx=0;exitDy=0;entryX=0.5;entryY=0;entryDx=0;entryDy=0;" edge="1" parent="1" source="iTXo6LtLCCWGJHb1AfA0-2" target="iTXo6LtLCCWGJHb1AfA0-9">
          <mxGeometry relative="1" as="geometry" />
        </mxCell>
        <mxCell id="iTXo6LtLCCWGJHb1AfA0-2" value="Scanning access card" style="rounded=1;whiteSpace=wrap;html=1;" vertex="1" parent="1">
          <mxGeometry x="318" y="74" width="120" height="60" as="geometry" />
        </mxCell>
        <mxCell id="iTXo6LtLCCWGJHb1AfA0-3" style="edgeStyle=orthogonalEdgeStyle;rounded=0;orthogonalLoop=1;jettySize=auto;html=1;exitX=1;exitY=0.5;exitDx=0;exitDy=0;entryX=0;entryY=0.5;entryDx=0;entryDy=0;" edge="1" parent="1" source="iTXo6LtLCCWGJHb1AfA0-9" target="iTXo6LtLCCWGJHb1AfA0-11">
          <mxGeometry relative="1" as="geometry" />
        </mxCell>
        <mxCell id="iTXo6LtLCCWGJHb1AfA0-4" value="Not valid" style="edgeLabel;html=1;align=center;verticalAlign=middle;resizable=0;points=[];" vertex="1" connectable="0" parent="iTXo6LtLCCWGJHb1AfA0-3">
          <mxGeometry x="-0.14" y="-1" relative="1" as="geometry">
            <mxPoint as="offset" />
          </mxGeometry>
        </mxCell>
        <mxCell id="iTXo6LtLCCWGJHb1AfA0-5" style="edgeStyle=orthogonalEdgeStyle;rounded=0;orthogonalLoop=1;jettySize=auto;html=1;exitX=0.5;exitY=1;exitDx=0;exitDy=0;" edge="1" parent="1" source="iTXo6LtLCCWGJHb1AfA0-9">
          <mxGeometry relative="1" as="geometry">
            <mxPoint x="378" y="324" as="targetPoint" />
          </mxGeometry>
        </mxCell>
        <mxCell id="iTXo6LtLCCWGJHb1AfA0-6" style="edgeStyle=orthogonalEdgeStyle;rounded=0;orthogonalLoop=1;jettySize=auto;html=1;exitX=0.5;exitY=1;exitDx=0;exitDy=0;" edge="1" parent="1" source="iTXo6LtLCCWGJHb1AfA0-9" target="iTXo6LtLCCWGJHb1AfA0-13">
          <mxGeometry relative="1" as="geometry">
            <Array as="points">
              <mxPoint x="378" y="324" />
              <mxPoint x="298" y="324" />
            </Array>
          </mxGeometry>
        </mxCell>
        <mxCell id="iTXo6LtLCCWGJHb1AfA0-7" style="edgeStyle=orthogonalEdgeStyle;rounded=0;orthogonalLoop=1;jettySize=auto;html=1;exitX=0.5;exitY=1;exitDx=0;exitDy=0;entryX=0.5;entryY=0;entryDx=0;entryDy=0;" edge="1" parent="1" source="iTXo6LtLCCWGJHb1AfA0-9" target="iTXo6LtLCCWGJHb1AfA0-16">
          <mxGeometry relative="1" as="geometry">
            <Array as="points">
              <mxPoint x="378" y="324" />
              <mxPoint x="458" y="324" />
            </Array>
          </mxGeometry>
        </mxCell>
        <mxCell id="iTXo6LtLCCWGJHb1AfA0-8" value="Valid" style="edgeLabel;html=1;align=center;verticalAlign=middle;resizable=0;points=[];" vertex="1" connectable="0" parent="iTXo6LtLCCWGJHb1AfA0-7">
          <mxGeometry x="-0.7882" y="-2" relative="1" as="geometry">
            <mxPoint as="offset" />
          </mxGeometry>
        </mxCell>
        <mxCell id="iTXo6LtLCCWGJHb1AfA0-9" value="Is card valid" style="rhombus;whiteSpace=wrap;html=1;" vertex="1" parent="1">
          <mxGeometry x="338" y="204" width="80" height="80" as="geometry" />
        </mxCell>
        <mxCell id="iTXo6LtLCCWGJHb1AfA0-10" style="edgeStyle=orthogonalEdgeStyle;rounded=0;orthogonalLoop=1;jettySize=auto;html=1;exitX=0.5;exitY=0;exitDx=0;exitDy=0;entryX=1;entryY=0.5;entryDx=0;entryDy=0;" edge="1" parent="1" source="iTXo6LtLCCWGJHb1AfA0-11" target="iTXo6LtLCCWGJHb1AfA0-2">
          <mxGeometry relative="1" as="geometry" />
        </mxCell>
        <mxCell id="iTXo6LtLCCWGJHb1AfA0-11" value="Display error message" style="rounded=1;whiteSpace=wrap;html=1;" vertex="1" parent="1">
          <mxGeometry x="518" y="214" width="120" height="60" as="geometry" />
        </mxCell>
        <mxCell id="iTXo6LtLCCWGJHb1AfA0-13" value="Unlock the door" style="rounded=1;whiteSpace=wrap;html=1;" vertex="1" parent="1">
          <mxGeometry x="238" y="364" width="120" height="60" as="geometry" />
        </mxCell>
        <mxCell id="iTXo6LtLCCWGJHb1AfA0-16" value="Service UI" style="rounded=1;whiteSpace=wrap;html=1;" vertex="1" parent="1">
          <mxGeometry x="398" y="364" width="120" height="60" as="geometry" />
        </mxCell>
        <mxCell id="iTXo6LtLCCWGJHb1AfA0-17" value="" style="shape=link;html=1;rounded=0;width=3.333333333333332;" edge="1" parent="1">
          <mxGeometry width="100" relative="1" as="geometry">
            <mxPoint x="258" y="324" as="sourcePoint" />
            <mxPoint x="518" y="324" as="targetPoint" />
            <Array as="points">
              <mxPoint x="308" y="324" />
            </Array>
          </mxGeometry>
        </mxCell>
        <mxCell id="iTXo6LtLCCWGJHb1AfA0-43" style="edgeStyle=orthogonalEdgeStyle;rounded=0;orthogonalLoop=1;jettySize=auto;html=1;exitX=0.5;exitY=1;exitDx=0;exitDy=0;entryX=0.5;entryY=0;entryDx=0;entryDy=0;" edge="1" parent="1" source="iTXo6LtLCCWGJHb1AfA0-29" target="iTXo6LtLCCWGJHb1AfA0-37">
          <mxGeometry relative="1" as="geometry" />
        </mxCell>
        <mxCell id="iTXo6LtLCCWGJHb1AfA0-29" value="Scan the content of the waredrobe" style="rounded=1;whiteSpace=wrap;html=1;" vertex="1" parent="1">
          <mxGeometry x="318.75" y="860" width="120" height="60" as="geometry" />
        </mxCell>
        <mxCell id="iTXo6LtLCCWGJHb1AfA0-30" value="" style="shape=link;html=1;rounded=0;width=3.333333333333332;" edge="1" parent="1">
          <mxGeometry width="100" relative="1" as="geometry">
            <mxPoint x="248" y="450" as="sourcePoint" />
            <mxPoint x="508" y="450" as="targetPoint" />
            <Array as="points">
              <mxPoint x="298" y="450" />
            </Array>
          </mxGeometry>
        </mxCell>
        <mxCell id="iTXo6LtLCCWGJHb1AfA0-42" style="edgeStyle=orthogonalEdgeStyle;rounded=0;orthogonalLoop=1;jettySize=auto;html=1;exitX=0.5;exitY=1;exitDx=0;exitDy=0;entryX=0.5;entryY=0;entryDx=0;entryDy=0;" edge="1" parent="1" source="iTXo6LtLCCWGJHb1AfA0-37" target="iTXo6LtLCCWGJHb1AfA0-39">
          <mxGeometry relative="1" as="geometry" />
        </mxCell>
        <mxCell id="iTXo6LtLCCWGJHb1AfA0-37" value="Display home menu" style="rounded=1;whiteSpace=wrap;html=1;" vertex="1" parent="1">
          <mxGeometry x="318" y="984" width="120" height="60" as="geometry" />
        </mxCell>
        <mxCell id="iTXo6LtLCCWGJHb1AfA0-39" value="" style="ellipse;shape=doubleEllipse;whiteSpace=wrap;html=1;" vertex="1" parent="1">
          <mxGeometry x="358" y="1114" width="41.5" height="40" as="geometry" />
        </mxCell>
        <mxCell id="iTXo6LtLCCWGJHb1AfA0-40" style="edgeStyle=orthogonalEdgeStyle;rounded=0;orthogonalLoop=1;jettySize=auto;html=1;exitX=0.5;exitY=1;exitDx=0;exitDy=0;entryX=0.5;entryY=0;entryDx=0;entryDy=0;" edge="1" parent="1" source="iTXo6LtLCCWGJHb1AfA0-41" target="iTXo6LtLCCWGJHb1AfA0-2">
          <mxGeometry relative="1" as="geometry" />
        </mxCell>
        <mxCell id="iTXo6LtLCCWGJHb1AfA0-41" value="" style="ellipse;whiteSpace=wrap;html=1;aspect=fixed;" vertex="1" parent="1">
          <mxGeometry x="358" y="14" width="40" height="40" as="geometry" />
        </mxCell>
      </root>
    </mxGraphModel>
  </diagram>
</mxfile>
